<?xml version="1.0" encoding="utf-8"?>
<!-- Generator: Adobe Illustrator 24.1.0, SVG Export Plug-In . SVG Version: 6.00 Build 0)  -->
<svg version="1.1" id="b53a807e-26bd-423b-9266-af2eb023e0f0"
	 xmlns="http://www.w3.org/2000/svg" xmlns:xlink="http://www.w3.org/1999/xlink" x="0px" y="0px" viewBox="0 0 924.2 818.9"
	 style="enable-background:new 0 0 924.2 818.9;" xml:space="preserve">
<style type="text/css">
	.st0{opacity:0.1;fill:#6C63FF;enable-background:new    ;}
	.st1{fill:#6C63FF;}
	.st2{fill:#FFD037;}
	.st3{opacity:0.1;enable-background:new    ;}
	.st4{opacity:0.2;enable-background:new    ;}
	.st5{fill:#3F3D56;}
	.st6{fill:none;stroke:#000000;stroke-width:2;stroke-linecap:round;stroke-linejoin:round;stroke-miterlimit:10;}
</style>
<path class="st0" d="M414,316.8c-36.1-11.7-74.3-21.5-113.3-20.5c-57.4,1.5-112.6,28.2-139.8,67.8c-23,33.5-26.1,72.9-36.1,110.1
	c-12.4,45.9-35.9,89.4-60.9,132c-13.5,22.9-27.7,46.2-30,71.3c-3.2,34.9,17.9,69.8,51.3,93.2s77.7,35.8,122.2,38.8
	c23.7,1.5,48.5,0.3,69.6-8.2c22.3-9,38.7-25.5,61.1-34.4c20.8-8.2,45-9.3,68.3-8.1c30.2,1.5,60.1,6.6,89.1,15.3
	c32.5,9.7,62.7,23.7,95.1,33.6c32.4,9.9,68.7,15.4,101.9,7.5c31.2-7.4,55.9-25.8,78.2-44.4c36-29.9,69.4-62.6,100-98
	c20.1-23.4,38.9-48.1,47.9-75.4c17.2-52.3-5.8-111.4-57.4-147.4c-42.7-29.8-100.1-43-156.4-51c-51.3-7.4-110.6-8.1-157.8-26.9
	C502.1,354.1,461.2,332.1,414,316.8z"/>
<ellipse class="st0" cx="874.5" cy="491.8" rx="23.1" ry="3.2"/>
<ellipse class="st0" cx="785.9" cy="500.7" rx="23.1" ry="3.2"/>
<ellipse class="st0" cx="681.6" cy="488.6" rx="23.1" ry="3.2"/>
<ellipse class="st0" cx="821.3" cy="526.3" rx="16.4" ry="2.3"/>
<ellipse class="st0" cx="729.5" cy="524" rx="16.4" ry="2.3"/>
<path class="st1" d="M720.4,518.9c-1-0.8-1.8-2-2.2-3.3c-0.3-1.3,0.3-2.7,1.5-3.3c1.4-0.5,2.9,0.4,4,1.4s2.4,2.1,3.9,1.9
	c-1.5-1.4-2.2-3.5-1.8-5.5c0.1-0.4,0.2-0.8,0.5-1.1c0.8-0.8,2.2-0.5,3.1,0.2c2.9,2.1,3.8,6,3.8,9.6c0.1-1.3,0.1-2.7,0-4
	s0.4-2.7,1.5-3.5c0.7-0.4,1.5-0.6,2.3-0.5c1.3-0.2,2.7,0.2,3.7,1c1.1,1.2,0.8,3.2-0.2,4.5c-1.1,1.2-2.4,2.2-3.8,3
	c-1.1,0.6-2,1.5-2.7,2.6c-0.1,0.1-0.1,0.3-0.2,0.5h-8.3C723.7,521.4,721.9,520.3,720.4,518.9z"/>
<path class="st1" d="M865.1,487.8c-1-0.8-1.8-2-2.2-3.3c-0.3-1.3,0.3-2.7,1.5-3.3c1.4-0.5,2.9,0.4,4,1.4s2.4,2.1,3.9,1.9
	c-1.5-1.4-2.2-3.5-1.8-5.5c0.1-0.4,0.2-0.8,0.5-1.1c0.8-0.8,2.2-0.5,3.1,0.2c2.9,2.1,3.8,6,3.8,9.6c0.1-1.3,0.1-2.7,0-4
	s0.4-2.7,1.5-3.5c0.7-0.4,1.5-0.6,2.3-0.5c1.3-0.2,2.7,0.2,3.7,1c1.1,1.2,0.8,3.2-0.2,4.5c-1.1,1.2-2.4,2.3-3.8,3.1
	c-1.1,0.6-2,1.5-2.7,2.6c-0.1,0.1-0.1,0.3-0.2,0.5h-8.3C868.3,490.3,866.6,489.2,865.1,487.8z"/>
<path class="st1" d="M816.9,518.9c-1-0.8-1.8-2-2.2-3.3c-0.3-1.3,0.3-2.7,1.5-3.3c1.4-0.5,2.9,0.4,4,1.4s2.4,2.1,3.9,1.9
	c-1.5-1.4-2.2-3.5-1.8-5.5c0.1-0.4,0.2-0.8,0.5-1.1c0.8-0.8,2.2-0.5,3.1,0.2c2.9,2.1,3.8,6,3.8,9.6c0.2-1.3,0.2-2.7,0-4
	c-0.1-1.3,0.4-2.7,1.5-3.5c0.7-0.4,1.5-0.6,2.3-0.5c1.3-0.2,2.7,0.2,3.7,1c1.1,1.2,0.8,3.2-0.2,4.5c-1.1,1.2-2.4,2.2-3.8,3
	c-1.1,0.6-2,1.5-2.7,2.6c-0.1,0.1-0.1,0.3-0.2,0.5H822C820.1,521.4,818.4,520.3,816.9,518.9z"/>
<path class="st2" d="M674.4,461.2c0,1.4,0.2,2.6,0.4,2.6s0.3-1.1,0.3-2.6s-0.2-0.8-0.4-0.8C674.5,460.4,674.4,459.8,674.4,461.2z"/>
<path class="st2" d="M672.4,462.9c1.2,0.7,2.3,1.1,2.4,0.9c0.1-0.2-0.8-0.9-2.1-1.5s-0.8-0.2-0.9,0S671.2,462.2,672.4,462.9z"/>
<path class="st3" d="M696.5,456c0.3,0.4,0.5,0.8,0.6,1.3c5.4,6.4,8.3,12.3,3.1,12.5c-4.9,0.1-10.7,8.8-12.1,11
	c0,0.2,0.1,0.3,0.2,0.5c0,0,6.8-11.4,12.4-11.5C706.3,469.6,702.6,462.9,696.5,456z"/>
<path class="st2" d="M702.2,461.2c0,1.4-0.2,2.6-0.4,2.6s-0.3-1.1-0.3-2.6s0.2-0.8,0.4-0.8C702.1,460.4,702.2,459.8,702.2,461.2z"/>
<path class="st2" d="M704.2,462.9c-1.2,0.7-2.3,1.1-2.4,0.9c-0.1-0.2,0.8-0.9,2.1-1.5s0.8-0.2,0.9,0S705.5,462.2,704.2,462.9z"/>
<path class="st4" d="M672.6,491.4c9.8,0.1,22.7-1.5,25.3-3.1c2-1.2,2.8-5.5,3-7.5h0.3c0,0-0.5,7-3.2,8.6c-2.6,1.6-15.5,3.2-25.3,3.1
	c-2.8,0-3.8-1-3.7-2.5C669.4,490.8,670.5,491.4,672.6,491.4z"/>
<circle class="st0" cx="129" cy="60.5" r="21.6"/>
<ellipse class="st0" cx="503.1" cy="26.4" rx="21.6" ry="21.6"/>
<circle class="st0" cx="846.2" cy="111.8" r="21.6"/>
<circle class="st0" cx="36.2" cy="258.9" r="36.2"/>
<ellipse transform="matrix(3.327794e-02 -0.9994 0.9994 3.327794e-02 -369.0202 494.2883)" class="st0" cx="71" cy="437.9" rx="36.2" ry="36.2"/>
<ellipse class="st5" cx="644.5" cy="627.5" rx="18.9" ry="11.2"/>
<g>
	<g>
		<path d="M684.4,0.9c1.9,7.4,2.2,14.2-4.4,20.1c-5.3,4.8-11.9,4.7-19.4-1.8c-2.2-1.9-4.5-3.8-6.8-5.7c-2,2.6-1.2,5.8-1.3,8.7
			c-0.2,8,0.5,15.9,0.2,23.9c-0.4,10.4-3,20-12.3,26.5c-2.6,1.9-0.9,4.2-0.4,6.2c7,26.8,17.2,52.7,21.6,80.1
			c1.7,10.4,0.2,20.5-3.7,30c-4,9.9-11.7,15.6-22.5,15.5c-13.1-0.1-23.9-4.9-30.6-16.9c-2.8-5.1-4.1-10.8-5.7-16.6
			c-6.1,6.4-13.4,11.2-12.1,21.7c0.5,4.2-4.1,8.5-1.3,13.6c0.6,1.1-1.3,1.6-2.4,1.8c-12.2,1.9-24.5,0.6-36.7,0.8
			c-0.6,0-1.8-1.1-1.7-1.3c3.7-7.4-4.6-13.1-2.6-20.3c0.8-2.8-1.4-3.7-4-4.3c-16.3-3.4-21.7-10.1-21.6-26.9c0-5.1,0.5-10.2,0.9-15.4
			c0.5-6,1.5-11.5,9-13c2.5-0.5,4.3-2.9,5.1-5.5c3.4-11,11.2-15.7,22.2-15.8c4,0,5.1-1.8,5-5.5c-0.3-11.7-3.9-22.9-5.6-34.4
			c-1.6-10.6-1.1-21.6-1.2-32.5c-0.2-17.2-0.1-17.2-17-17c-5.4,0.1-10.9,0.1-16.2,0.7c-4.1,0.4-6.3-2.4-8.7-4.6
			c-4.5-4-8.7-8.2-13-12.3c44,0,88,0,131.9,0c0.1,3.1,0.1,6.3,0.3,9.4c0.1,2.6-0.9,4.2-3.6,4.2c-4,0.1-3.6,2.1-2.4,4.7
			c2.1,4.5,5.7,8.1,6.6,13.3c1.4,8.4,3.3,16.7,5.1,25c0.2,0.9,0.9,1.7,1.4,2.5c0.7-0.8,1.7-1.5,2-2.4c2.3-7.2,2-14.6,1.3-22
			c-1.2-11.6-2.5-23.2-3.8-34.8C651.8,0.9,668.1,0.9,684.4,0.9z M613,142.3c-1,6.8-1.5,12.6-2.6,18.3c-1.8,9.6,0.2,18.3,6.7,25.5
			c5.8,6.4,13.5,8.7,21.8,6.1c7.8-2.4,10.6-9,11.4-16.5c0.7-6.6,0.4-13.1-0.8-19.6c-4.9-26.9-15.6-52.2-21.9-78.6
			c-0.2-0.9-1.2-2.1-2.1-2.4c-12.4-4.4-15.6-14.5-16.3-26c-0.7-10.2,1.2-20.6-3.9-30.5c-2.1-4.2-4.4-4-7.6-3.8c-3.8,0.2-3,3.2-3,5.4
			c-0.1,3.4-0.2,6.9,0,10.3c1.4,18.3-1.7,36.3-3.7,54.4c-0.1,0.9-0.7,1.8-1.2,2.6c-3.3,4.5-3.6,8.1,2.6,10.4
			c11.2,4.2,20.1,11.2,26.4,21.4c1,1.7,0.9,4.2,2.2,5.6c2.6,2.7,9.1,20.7,7.4,23.6c-1.9,3.1-1,6-1.3,9c-0.3,3.9-0.2,8.5-5.4,8.7
			c-5.1,0.2-7-3.8-7.5-8.3C613.5,152.9,613.4,148.1,613,142.3z M595.6,127.6c4.6,1.3,7.1-3.8,6.4-5.6c-2.6-6.5-9.3-8.9-15.5-10.9
			c-2.9-0.9-2.1,2.4-2.2,3.9C584.1,122.4,588.7,127.6,595.6,127.6z M525.8,165.4c-1.9,0.3-4.1-0.2-3.4,2.1c1.2,4.3,3.7,7.9,8.4,8.7
			c2.2,0.4,3.7-2.3,3.2-3.7C532.5,168.6,528.9,166.9,525.8,165.4z"/>
		<path d="M722,442.8c4.3,0.3,4.1-3.1,4.2-5.6c0.5-12,0.5-24,1-35.9c0.1-2.9-4-3.7-3-5.6c3.1-5.7,2.9-11.9,3.8-18
			c0.1-0.8,2.6-1.5,4.1-1.7c20.6-3.3,41.3-1.1,62-1.5c5.3-0.1,7.2-1.2,7.1-6.9c-0.4-17-0.2-17-17.1-17.5c-8.6-0.3-17.1-0.5-25.7-0.4
			c-3.5,0-4.9-1.2-4.8-4.7c0.7-26.8,1.4-53.6,2-80.5c0.1-2.9,1.3-4,4.2-4c33.3-0.3,66.5-0.7,99.8-1.2c3.3,0,3.8,1.7,3.8,4.3
			c-0.1,7.3-0.3,14.6-0.4,21.8c0,1,0.3,2.5,1,3c1.4,1,1.6-0.8,2.4-1.5c2-1.9,4.6-1.5,6.9-0.9c2.4,0.6,2.4,2.9,2.5,4.9
			c0,11.9,0,23.8,0,36.2c3.4-1.6,3.3-3.8,3.1-6.1c-0.2-1.6-0.6-3.1-0.7-4.6c-0.2-2.6,0.3-5.4,3.6-5.1c3.6,0.3-0.4,3.2,1,4.6
			c2.7,0.4,1.9-5.4,4.3-3.3c1.4,1.3,0.5,5.4,0.2,8.1c-0.8,8-1.9,15.9-4.3,23.9c-0.9-3.9-1.9-7.9-2.9-11.8c-0.4-1.4-1.1-2.8-2.8-2.8
			c-1.6,0-1.3,1.5-1.6,2.6c-1.3,4.5-5.9,3.3-8.8,4.6c-3.8,1.7-5.4,3.7-4.8,7.6c0.7,5.3-1.6,6.8-6.8,6.6c-8.8-0.5-17.7,0-26.5-0.4
			c-4.5-0.2-6,1.5-5.5,5.7c0.2,1.8-0.2,3.7,0.1,5.6c0.6,4.1-2.4,10.1,1.5,11.9c5.2,2.4,11.7,1.4,17.7,0.2c1.5-0.3,1.8-1.3,1.8-2.5
			c0.1-5.1,4-4.9,7.3-5.1c3.8-0.2,5.7,3,7.6,5.5c0.9,1.2-0.9,2.3-2.2,2.2c-1.4-0.2-3.4-1-3.1,1.2c0.3,2.1,2.7,1.2,4,0.9
			c8.2-2.3,16.3-1.4,24.5-0.5c2.9,0.3,3.5,1.9,3.3,3.6c-1.8,16.5,1.8,33.3-0.4,49.5c-5.7,42.3-2,84.7-3.4,127
			c-1,32.4-0.7,64.8-0.9,97.2c-0.1,9.2-5.9,15.5-15.2,18.2c-33.5,9.7-67.2,7.7-100.9,1.6c-12.2-2.2-23.2-6.3-32.9-15.8
			c-5.2-5.1-5.4-9.2-5.5-14.7c-0.1-23.1-0.1-46.2,0.1-69.4c0-4.3-1.4-5.6-5.6-5.6c-40.7-0.1-81.4-0.2-122-0.7
			c-4.2-0.1-4,4.2-5.8,4.3c-7.3,0.6-9.7,7.9-15.9,10.3c-6.4,2.4-12.5,4.6-19.3,4.6c-4.6,0-10.1,0.9-9.1-6.8c0.1-0.6-0.7-1.6-1.3-2
			c-8-5-8-7.6,0.7-12.9c-11.1,0-21.4,0-31.8,0c-3.1,0-6.3,0-9.4-0.3c-17.4-1.8-23.1-15-13.1-29.8c1.6-2.4,2.4-5.2,0-7.8
			c-0.5-0.5-1-1.2-1-1.8c0.9-12.7-10.9-19.5-14.3-30.2c-1.4-4.5-5.2-7.9-10.3-8.7c-4.3-0.7-5.8-4.3-6.6-7.6
			c-0.9-3.8-1.2-7.5-4.2-10.8c-0.9-1,1.4-4.9,2.2-7.5c0.3-0.9,0.9-2.2,0.5-2.7c-6.7-9.6,1.2-8.2,6.4-8.5c4.2-0.2,8.5,0,12.8-1.7
			c-21.2,0-42.4,0-63.6,0c-6.4,0-12.7,0.2-19.1,0.5c-2,0.1-1.5-1.3-1.6-2.3c-0.3-2.5,0.4-4.1,3.4-4.1c12,0.1,24,0.2,36,0.3
			c32.3,0.2,64.5,1,96.8,0.1c6.9-0.2,14.5-5.2,19.7-11.4c1.7-2,0.8-2.7-1.4-2.7c-2,0-4,0-6,0c-45.2-0.3-90.5-0.7-135.7-1
			c-0.9,0-1.9,0-2.8-0.2c30.2,0,60.5,0,90.7,0c18.7,0,37.4,0.2,56.1,0.2c3.6,0,5.1-2.8,5.7-5.5c2.6-10.3,5.6-20.7,6.8-31.2
			c0.9-8.7,5.3-6.2,10.1-4.9c0.5-4.2,0.5-4.2-6.3-6.7c2.5,0,4,0,7.3,0c-7.8-3.2-5-8-3.4-11.4c4.8-9.9,3.3-20.8,6.2-31
			c1.6-5.6,2.5-11.4,3.7-17.2c0.5-2.5,2-2.8,4.4-2.5c6.1,0.9,13.3,3.4,13.6-7.1c0-0.3,0.1-0.6,0.3-0.8c6.2-5.1,10.5-8.3-1.1-13.8
			c-7.4-3.5-5.9-23.6-0.2-31.1c1.1-1.4,1.4-3.3,2.5-6c-1.6,1.2-2.3,1.7-3.2,2.3c2.7-11.9,18.8-16.8,30.8-9.7
			c9.3,5.4,12.5,14.4,8.7,25c-1.2,3.4-0.7,5.5,2.1,8.1c6.8,6.3,9.4,14.4,7.7,23.7c-0.2,1-0.8,2-0.6,2.9c1.6,6.9,1.7,6.8-1.3,14.2
			c-3.1-5.9-8-4.3-12.7-3.3c-0.8,0.2-2.1,1.2-2.1,1.6c0.2,1.6,1.6,1.1,2.7,1c1.9-0.2,4.4-1.2,5.5,0.9c1,2.1-2.5,2.2-2.8,3.6
			c-1,4.3-3.1,7.5-9.5,9.2c3.5,0.6,4.9,0.8,7.4,1.3c-12.9,9.5-22.6,19.4-8,34.5c-2-0.8-4-1.7-6.1-2.5c-1.6-0.6-3.4-1.8-4.7,0
			c-1.2,1.7,0.2,3.4,1.2,4.6c2.1,2.4,3.2,4.8,2.4,8.2c-0.8,3,1,4.1,3.8,4.1c5,0,9.9,0,15,1.2c-5.5,0.5-10.9,0.9-17.6,1.5
			c10.1,7.4,21.1,0.6,31.1,5c-6.6,1.3-12.5,2.4-18.4,3.6c-2.6,0.5-5.1,1.3-5.8,4.3c-0.4,1.6,0.3,2.9,1.7,3.5c2.7,1.2,4.7,0,6.9-1.7
			c4.2-3.3,9.8-2.6,14.7-3.5c0.4-0.1,1,0.7,1.5,1.1c-0.6,0.5-1.4,0.9-1.9,1.5c-2,2.1-11.4,0.6-3.7,7.5c-0.6,0.4-1.2,0.9-1.8,1.4
			c1.4,0.3,2.7,0.7,4.5,1.1c-2.4,1.7-2.9,3,0.2,4c4.5,1.5,8.8,3.3,11.3,7.8c0.9,1.6,2.8,1.2,4.3,1.2c7.3,0.1,14.6-0.2,21.8,0.1
			c6.3,0.3,6.6-2.8,4.9-7.5c-2.6-6.9-7-12.7-11.3-18.6c-0.9-1.3-4-3.5-0.5-4.5c2.9-0.8,6.2-6.8,9.5-0.6c4.2,7.9,7,16.9,12.5,23.7
			c6,7.4,9.9,17.2,19.7,21.3C721.7,440.8,721.8,442.1,722,442.8c-2,0.3-4.1,0.7-6.2,0.7c-18.1,0.1-36.2,0.1-54.3,0.3
			c-1.5,0-3.4-0.7-5.1,1.4c22.5,0.8,44.5-0.9,66.4,1.7c1.2,0.1,2.5-0.3,2.6-1.7C725.6,442.8,723,443.9,722,442.8z M636.1,470.5
			c3.9,0.2,6.1,1.4,6,5.7c-0.1,3.7,3.1,4.6,5.9,4.9c3.2,0.4,6.1,1.4,8.9,2.7c7.1,3.5,14.1,7.7,21.6,10c14.4,4.4,29.5,1.4,44.3,1.9
			c1.8,0.1,3-1.2,3.1-2.9c0.2-6.7,0.2-13.4,0.1-20.1c0-2.4-2.2-2.3-3.9-2.3C693.5,470.5,664.8,470.5,636.1,470.5z M590.2,354.6
			c-0.4,1.1-0.7,1.9-1,2.6c-5.4,12.2-3,26.5-13,37.8c-5.5,6.2-8.8,15.6-9.1,24.9c-0.1,2.2-1.1,5,1.5,6.1c2.5,1,5.2,0.6,7.6-1.3
			c7.5-6,18.2-9.5,19-21.1c0.3-5,3.6-9.5,2.2-14.7c-1.7-6.5-2.9-13.1-2.7-19.8C594.7,363.9,593.5,359.2,590.2,354.6z M696.9,516.4
			c5.8,0,10.8,0,15.7,0c13.6,0.1,15-1.6,12.9-15.5c-0.2-1.4-0.5-2.7-2.2-2.6c-13.8,0.4-27.6,0.9-41.5,1.4c-0.8,0-1.8,0.8-2.3,1.5
			c-0.2,0.2,0.6,1.8,1.1,1.9c6.6,0.9,10.7,7,17.2,8.2c1.9,0.4,4.9,0.8,4.8,2.7C702.6,516.8,699.4,514.9,696.9,516.4z M673.1,442.7
			c0-0.2,0-0.4,0-0.5c5.7,0,11.4-0.1,17.1,0c3.9,0.1,4.6-2.3,4.3-5.3c-0.4-3.4,1.2-8.3-4.3-8.7c-8.8-0.6-17.7-0.6-26.5-0.7
			c-1.7,0-3.4,0-4,2.3c-2.8,11-1.5,12.8,10,12.9C670.8,442.7,672,442.7,673.1,442.7z M837.9,426.6c8.9,2.9,17.9,6.3,27.7,5.2
			c4.4-0.5,7.6-2.1,8.1-6.6c0.7-5.5,0.7-11.1,1.1-16.6c0.1-1.6-1.1-1.3-2-1.4c-6.4-0.8-8.3,3-7.5,8.3c1.4,9.1-3.9,11-11.1,11.1
			C848.8,426.7,843.3,426.6,837.9,426.6z M724.3,449.4c0-0.3,0-0.6,0-0.9c-23.9,0-47.8,0-71.7,0c0,0.3,0,0.6,0,0.9
			C676.5,449.4,700.4,449.4,724.3,449.4z M811.4,374.5c3.1-1.3,8.9,1.6,8.9-2c0-4.1-5.8-2.5-9-2.4c-3.1,0.1-9.1-1.2-8.9,1.8
			C802.8,376.5,808.4,373.1,811.4,374.5z M703.8,442.3c1.3-1.2,5,0.8,4.5-2c-0.6-3.3-2.1-7.9-6.4-7.9c-4.3,0-3,4.5-3.3,7.1
			C698.3,443.6,701.8,441.4,703.8,442.3z M546.5,440.5c3.4,2,6.5,1.5,9.6,1.6c1.5,0,3.9,0.9,4.3-1.5c0.3-1.8,0-4.2-1-5.6
			c-1.1-1.5-3.1-0.2-4.6,0.7C552.2,437.2,549.6,438.6,546.5,440.5z"/>
		<path d="M178.3,210.2c-2.2-1.4-3.7-2.4-6.2-4c10.2-1.3,19,0,27.8,0.3c6.1,0.2,12.2,0.7,18.4,0.8c3.7,0.1,5.1,2,5.1,5.4
			c-0.3,42.2-0.5,84.5-0.8,126.7c0,3.4-1.7,4.8-5,5c-15.9,1-31.9,2.4-47.8,3.1c-5.3,0.2-7.1,1.7-7.2,7.1
			c-0.1,42.8-0.5,85.6-0.9,128.4c-0.1,17-0.3,34-0.8,50.9c-0.2,5.1,1.5,7,6.6,7.5c11.5,0.9,23,2.4,34.4,3.8c2.4,0.3,6.6-0.4,6.5,3.2
			c-0.1,3.3-4.4,3-6.8,2.9c-26.4-1.9-51,7.2-76.2,12.2c-2.6,0.5-4.9,0.6-4.8,4.4c0,2.4-2.9,2.4-4.8,2.6c-17,2.5-33.5-2.3-50.2-3.9
			c-4.5-0.4-9-1.5-13.4-2.7c-2-0.5-4.2-1.4-4.4-4.1c-0.1-2.6,1.2-4.8,3.6-5.3c8.6-1.8,8.5-7.9,8.5-14.8c-0.2-24.5,0.1-49.1-0.1-73.6
			c0-4.3,1.6-5.7,5.6-6.1c17.6-1.7,16.4-1.9,18-19.1c3.4-35.6-5.4-70.4-4.9-105.8c0.2-16.7-0.5-16.6-8.2-31
			c-7.7-14.4-5.3-29.8-2.1-44.8c2.5-11.4,6.8-22.3,14.4-31.4c1.6-1.9,2.1-3.9,2.1-6.3c-0.1-27.1-0.1-54.2,0-81.4
			c0-4.1-1.5-5.2-5.3-4.9c-5.8,0.5-11.7,0.6-17.5,0.9c-3.7,0.2-5-0.9-5.3-5c-0.4-5.6,1.5-6.6,6.6-6.3c5.9,0.3,12-0.6,17.9-0.7
			c3-0.1,3.4-1.8,3.4-4.2c0-7.4,0.1-14.8,0-22.3c0-3,1-4.1,4.2-4.4c23.6-2.7,46.6,1.6,69.8,5c3.8,0.6,4,2.8,4,5.8
			c0,30.5,0,61.1,0.1,91.6C162.7,204,168.7,209.8,178.3,210.2z M208,242c-0.4-4.5,0.7-10.2-1.7-15.7c-1.7-3.9-4.6-4.4-8.3-4.5
			c-4.1-0.1-6.2,2.7-8,5.5c-2.1,3.2,1.8,4.3,2.9,6.5c3.2,5.8,7.4,11.4,6.1,18.8c-0.6,3.4,0.5,6.8,4.3,7.1c3.5,0.3,4.7-2.6,4.6-5.8
			C208,250.3,208,246.7,208,242z M75.8,299c0-13.4,0-26.9,0-40.3C71.9,272.2,69.7,285.6,75.8,299z M209.9,255.3
			c0.7,0.1,1.4,0.1,2,0.2c0.6-9.5,1.2-19,1.7-28.5c0-0.4-1.2-1.4-1.8-1.4c-1.6,0-2,1.4-2,2.8C209.8,237.4,209.9,246.4,209.9,255.3z"
			/>
		<path d="M293.2,443.6c-0.8,1.4-1.6,2.8-3.1,5.4c0-8.9-1.6-16.8,0.4-23.7c3-10.4,1.3-20.7,2.4-30.9c0.9-8.6,2.7-17.3,2.3-25.9
			c-0.3-6.9-2.3-14-5.1-20.3c-5.3-12-11.9-23.4-17.5-35.3c-1-2.2,0.9-5.5,0.6-8.3c-1.5-15,3.3-30,2.2-44.6
			c-1.8-23.6,15.8-32.1,30.1-41.8c14.3-9.8,15.7-17.6,9.4-32c-3.3-7.5-1.7-19.6,5.3-26.2c5.8-5.4,12.1-8.6,21.6-5.9
			c10.9,3.1,19.1,8.1,23.9,18.5c-2,0.9-4.7,2.3-4.1,5.1c1.1,5.6-1.1,11.4,1.4,16.9c1.1,2.5,1.3,4.3-2.3,5.9c-3.2,1.4-4.6,6-4.7,9.4
			c-0.1,4.7-2.5,5.1-6,5c-0.7,0-1.4-0.1-2.1-0.1c-3.1,0.1-7.5-1.3-7.7,3.6c-0.2,4,4.3,5.3,7,5.9c5.2,1.1,8.1,4.2,11.5,7.8
			c11.5,12.2,8.8,30.1,18.1,43.3c2.8,3.9-5.2,3.8-5.5,8.3c6-0.6,11.9-1.1,17.7-2c4-0.6,6,0.3,6.5,4.7c2.5,20.5,5.3,41,7.9,61.5
			c0.4,3.2,0.8,6.2,3.2,8.9c2.9,3.3,3.4,8,1.3,11.2c-2.6,4.2-7.1,7.2-12.8,6.2c-4.8-0.9-9.4-0.2-14.4-3.5c-4.9-3.2-7.3,2.7-7.1,7.8
			c1.1,25.4,0.3,50.7-2.7,76c-1.8,15,2.8,30.2,0.7,45.2c-1.8,12.4-0.4,24.1,4.8,35.4c1.9,4.1,0.7,6.5-3.4,7.9
			c-0.4,0.1-0.8,0.4-1.2,0.5c-3,1.2-6.6,3.2-6,6.3c0.6,3.1,4.8,1.6,6.7,1.7c4.2,12.8,13.1,9.2,23.8,4.9c-6.3,6-11.6,5.6-16.7,6.3
			c6.6,1.2,13.2,2,19.9,0.2c1.1-0.3,2.3-1.8,3.4-0.1c0.3,0.4,0.6,1.5,0.5,1.5c-1.1,0.5-2.2,1.4-3.3,1.3c-17.2-0.7-34.5-1.5-51.7-2.3
			c-2.5-0.1-4-2-3.6-4c1.6-9.9-4.4-19-2.4-29c2.6-12.7-3-24.7-4.8-37.1c-1.9-13-0.3-25.7,2.1-38.2c1.4-7-2.5-13.1-1.2-19.7
			c0.1-0.6-1.2-2-2.1-2.3c-1.6-0.5-1.7,1.2-2,2.1c-4.7,12.1-10.7,23.9-13.8,36.4c-2.3,9.1-0.9,19.2-1.1,28.9
			c-0.2,13.7-0.2,27.4-0.3,41.1c-0.1,8.8-2.7,10.9-11.1,10c-6.2-0.7-12.4-0.6-18.6-1c-4.3-0.3-6.1-2.8-6.1-7.1
			c-0.2-22.3,1-44.4,2.7-66.6c0.8-10.3,3.2-19.8,7.3-29.1c0.5-1.2,0.6-2.6,0.9-3.9C294,443.9,293.6,443.8,293.2,443.6z M326.6,307.5
			c0.8,0.3,6.4-3,1.9,3c-1.6,2.1,1.6,2,2.9,1.8c4.4-0.7,8.8-0.6,13.2-0.1c14.7,1.9,29.4,3.6,44,5.5c4.7,0.6,6.7-1,6-5.9
			c-1.1-7.6-1.9-15.3-2.8-22.9c-0.3-2.9-1.7-3.8-4.6-3.4c-11.2,1.5-22.3,2.9-33.5,4.3c-11.1,1.4-23,0.8-30.8,11.3
			c-1.1,1.5-3.7,2.6-2.7,4.9C321.3,308.3,323.9,307.3,326.6,307.5z M314.3,332.1c2.2,6.9,0.6,7.1-2.5,5.3c-1-0.6-3-0.7-2.4,0.8
			c1.5,4,5.7,4.8,9.3,6c1.4,0.5,3,0.3,4.5,0.5c0.1-2.7-2.7-3.4-3.8-5.2C318.4,337.8,317.2,336.2,314.3,332.1z"/>
		<path d="M645.1,337.4c0.3,1.1,0.3,2.6,1.1,3.3c1.9,1.8-1.5,7,5,6.8c1.7-0.1,3.6,8.5,5.4,13.1c0.1,0.2-0.4,0.7-0.6,1.1
			c-2.2-2.5-4.9-2.4-7.7-1.7c-1.7-7.4-3.4-14.8-5.1-22.2C643.8,337.7,644.5,337.6,645.1,337.4z"/>
		<path d="M672.4,390.4c-0.7,1.8-0.9,3.8,0.6,5.7c0.2,0.3,0.1,1.1-0.2,1.3c-1.1,0.6-2,0.1-2.4-0.9c-2.2-4.7-4.4-9.5-6.5-14.2
			c-0.3-0.7-0.7-2,0.6-1.9c3.1,0,5.2,2.2,6.8,4.5C672.2,386.2,672,388.3,672.4,390.4z"/>
		<path d="M670.5,471.1c2,0,4-0.2,6,0c2.3,0.2,6.5-1,6.5,1c0,3.1-4.2,2.2-6.6,3.1c-5.8,2.2-11.5,3.1-17.1-0.6
			c-0.9-0.6-2-1.7-1.9-2.5c0.1-1.5,1.7-1.1,2.8-1.1C663.6,471.1,667,471.1,670.5,471.1C670.5,471.1,670.5,471.1,670.5,471.1z"/>
		<path class="st6" d="M552.9,427.4c-10.1-0.1-20.3-0.3-30.4-0.4c-39.8-0.3-79.7-0.6-119.5-0.9"/>
		<path class="st6" d="M727.2,496.8c-15.4,0.4-30.8,1.5-46.3,0.4"/>
		<path class="st6" d="M394.8,322.5c4.7-6.2,0.9-12.9,0.7-19.3c-0.1-5.2-1.6-10.3-1.9-15.4c-0.3-4.6-2.5-4.6-6.1-3.9
			c-5.5,1-11.1,1.6-16.7,2.1c-0.9,0.1-2-1-3-1.6"/>
		<path class="st6" d="M653.1,445.4c1.4,1.8,3.3,1.3,5.1,1.3c18.3,0,36.6,0,54.8,0"/>
		<path class="st6" d="M501.9,3c-1.6-0.6-3.1-1.1-4.7-1.7"/>
		<path class="st6" d="M695.1,426.6c-12.6,0-25.1,0-37.7,0"/>
		<path class="st6" d="M656.1,442c12.5,2.7,25.1,0.9,37.7,0.6c5.5-0.1,11.3,1.8,16.7-0.6"/>
		<path class="st6" d="M651.4,394.4c-6.7,0.6-13.4,1.1-20.1,1.7"/>
		<path class="st6" d="M519.5,165.7c1.5,6.3,4.9,11,11.1,13.3"/>
		<path class="st6" d="M208.1,224.4c0.6,11.8,1.1,23.7,1.7,35.5"/>
		<path class="st6" d="M638.6,388c-8,0.1-16.1-0.6-24,1.7"/>
		<path class="st6" d="M620.6,367.9c2,1.7,4,3.4,6,5.1"/>
		<path class="st6" d="M727.2,447.5c-4.4-0.1-8.9-0.3-13.3-0.4"/>
		<path class="st6" d="M394,559.7c-2.3-3.5-3.8,0.4-5.1,1c-4.2,2-8.5-0.7-12.5,1.1"/>
		<path class="st6" d="M801.8,368.7c-0.1,2.6-0.3,5.1-0.4,7.7"/>
		<path class="st6" d="M367,172.6c-1.7-0.4-3.4-0.9-5.1-1.3"/>
		<path class="st6" d="M652.3,401.7c-3.7,1.1-7.4,2.3-11.1,3.4"/>
		<path class="st6" d="M882.9,335.8c0.2,3.3,0.4,6.6,0.6,9.9"/>
		<path class="st6" d="M627.4,340.5c2-0.7,4-1.4,6-2.1"/>
		<path class="st6" d="M684,472c-4,0.6-8,1.1-12,1.7"/>
		<path class="st6" d="M703.7,514.4c-2.7-0.3-5.4-0.6-8.1-0.9"/>
		<path class="st6" d="M697,432.6c-0.2,3-0.4,6-0.6,9"/>
		<path class="st6" d="M645,337c-0.5,5,0.8,9.5,3.4,13.7"/>
		<path class="st6" d="M881.9,328.1c-2.9,0.3-5.7,0.6-8.6,0.9"/>
		<path class="st6" d="M403.8,564.5c-8.3,0.8-16.6,1.6-24.8,0"/>
		<path class="st6" d="M602.1,255.2c-2.3,0.7-3.5,2.4-3.9,4.7"/>
		<path class="st6" d="M885.3,385c-1.1,0.1-2.3,0.3-3.4,0.4"/>
		<path class="st6" d="M579,378.6c-3.9,2.4-7.7-0.9-11.6-0.4"/>
		<path class="st6" d="M886.1,383.3c-1.4,0-2.9,0-4.3,0"/>
		<path class="st6" d="M172.5,206c3.3,1.7,7.6,0.6,10.3,3.9"/>
		<path class="st6" d="M882.7,313.5c-1.4-0.1-2.7-0.1-3,1.7c-0.4,2.6,0.9,4.3,3,5.6"/>
		<path class="st6" d="M643.7,315.2c0.6,3.3,1.1,6.6,1.7,9.9"/>
		<path class="st6" d="M313.9,550.8c0,1,0,2,0,3"/>
		<path class="st6" d="M638.1,410.3c3,0.4,6,0.9,9,1.3"/>
		<path class="st6" d="M639.4,324.6c-3.6-0.5-6.2,1.6-9,3.4"/>
		<path class="st6" d="M456.1,465.5c2.1,3,4.8,3,7.7,1.3"/>
		<path class="st6" d="M292.9,439.8c-2.6,2.3-1.9,5.6-2.6,8.6"/>
		<path class="st6" d="M651,355.5c3.3,1.3,4.8,3.8,4.7,7.3"/>
		<path class="st6" d="M886.1,381.6c-1.4,0-2.9,0-4.3,0"/>
		<path class="st6" d="M821.5,369.6c1.9,2.6,0.3,5.1,0,7.7"/>
		<path class="st6" d="M647.6,313.9c1-0.3,2-0.6,3-0.9"/>
		<path class="st6" d="M331,307.9c-2.8-0.1-4.7,1.6-6.9,3"/>
		<path class="st6" d="M598.3,314.8c-0.9,2.1-0.3,4,0.4,6"/>
		<path class="st6" d="M687,392.7c-0.6,2.1-1.1,4.3-1.7,6.4"/>
		<path class="st6" d="M665.8,382.2c2.8,3,4.2,6.5,4.5,10.5c0.2,2.4,0.7,5,4.2,4.3"/>
		<path class="st6" d="M311.7,333.2c1.1,1.9,2.3,3.7,3.4,5.6"/>
		<path class="st6" d="M885.3,389.3c-1.7,0.1-3.4,0.3-5.1,0.4"/>
		<path class="st6" d="M659.1,185c-2,0.7-4,1.4-6,2.1"/>
		<path class="st6" d="M575.2,374.3c-2,0.3-4,0.6-6,0.9"/>
		<path class="st6" d="M584.2,315.6c-0.4,2.5,1,4.3,2.6,6"/>
		<path class="st6" d="M466.4,477.1c-1.7,0.3-3.4,0.6-5.1,0.9"/>
		<path class="st6" d="M851.2,370c2.8,0.9,5.6,1.7,8.4,2.6"/>
		<path class="st6" d="M287.7,238.1c-1.8-1.1-3.6-1.2-5.6-0.4"/>
		<path class="st6" d="M290.7,340.9c-1.7,0.1-3.4,0.3-5.1,0.4"/>
		<path class="st6" d="M649.7,352.5c2.1,3-1.5,5.6-0.4,8.6"/>
		<path class="st6" d="M649.7,414.1c-1.7,0.4-3.6-1.4-5.1,0.4"/>
		<path class="st6" d="M870.3,331.1c0.1,1.7,0.3,3.4,0.4,5.1"/>
		<path class="st6" d="M647.1,415.8c-1.6,0.1-3.1,0.3-4.7,0.4"/>
		<path class="st6" d="M624.8,152.2c-1,0.1-2,0.1-3,0.2"/>
		<path class="st6" d="M726.4,442.8c-1.4,0-2.9,0-4.3,0"/>
		<path class="st6" d="M885.3,378.2c-1.9,0.7-3.7,1.4-5.6,2.1"/>
		<path class="st6" d="M405.5,355c-0.1,1-0.3,2-0.4,3"/>
	</g>
</g>
</svg>
